<svg version="1.1" viewBox="0.0 0.0 310.15485564304464 310.15485564304464" fill="none" stroke="none" stroke-linecap="square" stroke-miterlimit="10" xmlns:xlink="http://www.w3.org/1999/xlink" xmlns="http://www.w3.org/2000/svg"><clipPath id="p.0"><path d="m0 0l310.15485 0l0 310.15485l-310.15485 0l0 -310.15485z" clip-rule="nonzero"/></clipPath><g clip-path="url(#p.0)"><path fill="#000000" fill-opacity="0.0" d="m0 0l310.15485 0l0 310.15485l-310.15485 0z" fill-rule="evenodd"/><path fill="#666666" d="m2.4199476 154.7979l0 0c0 -84.2082 68.26424 -152.47244 152.47244 -152.47244l0 0c40.4382 0 79.22015 16.064016 107.8143 44.658146c28.594116 28.594131 44.658142 67.37609 44.658142 107.81429l0 0c0 84.208206 -68.26425 152.47246 -152.47244 152.47246l0 0c-84.20821 0 -152.47244 -68.26425 -152.47244 -152.47246z" fill-rule="evenodd"/><path fill="#666666" d="m12.734908 154.7979l0 0c0 -78.511406 63.646072 -142.15747 142.15749 -142.15747l0 0c37.7025 0 73.86081 14.977263 100.52051 41.636963c26.659698 26.659698 41.636963 62.81801 41.636963 100.520515l0 0c0 78.51141 -63.646072 142.15749 -142.15747 142.15749l0 0c-78.51141 0 -142.15749 -63.646072 -142.15749 -142.15749z" fill-rule="evenodd"/><path stroke="#f3f3f3" stroke-width="4.0" stroke-linejoin="round" stroke-linecap="butt" d="m12.734908 154.7979l0 0c0 -78.511406 63.646072 -142.15747 142.15749 -142.15747l0 0c37.7025 0 73.86081 14.977263 100.52051 41.636963c26.659698 26.659698 41.636963 62.81801 41.636963 100.520515l0 0c0 78.51141 -63.646072 142.15749 -142.15747 142.15749l0 0c-78.51141 0 -142.15749 -63.646072 -142.15749 -142.15749z" fill-rule="evenodd"/><path fill="#000000" fill-opacity="0.0" d="m29.622047 57.72441l312.2205 0l0 62.425194l-312.2205 0z" fill-rule="evenodd"/><path fill="#f3f3f3" d="m53.262672 105.64003q-6.40625 0 -9.78125 -3.375q-3.375 -3.375 -3.375 -10.453125q0 -6.890625 3.234375 -10.421875q3.234375 -3.546875 9.921875 -3.546875q2.125 0 4.28125 0.53125q2.15625 0.515625 4.203125 1.4375l0 5.625q-2.078125 -1.359375 -4.0 -1.953125q-1.921875 -0.59375 -3.609375 -0.59375q-2.359375 0 -3.984375 0.84375q-1.609375 0.828125 -2.46875 2.796875q-0.859375 1.953125 -0.859375 5.28125q0 3.3125 0.859375 5.234375q0.859375 1.921875 2.546875 2.75q1.703125 0.8125 4.1875 0.8125q1.484375 0 3.359375 -0.5625q1.890625 -0.5625 3.96875 -1.921875l0 5.640625q-1.125 0.5625 -2.546875 0.984375q-1.421875 0.421875 -2.96875 0.65625q-1.53125 0.234375 -2.96875 0.234375zm25.684357 0.328125q-6.171875 0 -9.234375 -2.625q-3.046875 -2.625 -3.046875 -8.171875l0 -16.734375l6.75 0l0 16.453125q0 3.078125 1.234375 4.5625q1.25 1.46875 3.96875 1.46875q2.484375 0 3.859375 -1.46875q1.390625 -1.484375 1.390625 -4.5625l0 -16.453125l6.15625 0l0 16.734375q0 3.71875 -1.421875 6.09375q-1.421875 2.375 -3.90625 3.546875q-2.46875 1.15625 -5.75 1.15625zm25.711853 -0.28125q-2.03125 0 -3.671875 -0.203125q-1.640625 -0.203125 -3.046875 -0.59375q-1.390625 -0.40625 -2.71875 -1.046875l0 -6.15625q1.84375 1.484375 4.15625 2.25q2.328125 0.75 4.40625 0.75q1.84375 0 2.8125 -0.703125q0.984375 -0.703125 0.984375 -2.140625q0 -1.078125 -0.90625 -1.734375q-0.890625 -0.671875 -2.375 -1.171875q-1.484375 -0.5 -3.3125 -1.125q-1.171875 -0.375 -2.296875 -0.921875q-1.109375 -0.5625 -2.0 -1.421875q-0.875 -0.859375 -1.390625 -2.09375q-0.515625 -1.25 -0.515625 -3.046875q0 -1.640625 0.59375 -3.15625q0.609375 -1.53125 1.859375 -2.71875q1.265625 -1.203125 3.21875 -1.90625q1.96875 -0.703125 4.609375 -0.703125q1.640625 0 2.890625 0.203125q1.265625 0.203125 2.421875 0.578125q1.171875 0.375 2.359375 0.984375l0 6.234375q-0.921875 -0.765625 -2.0625 -1.421875q-1.125 -0.65625 -2.375 -1.09375q-1.234375 -0.4375 -2.59375 -0.484375q-1.203125 -0.03125 -2.203125 0.25q-1.0 0.265625 -1.5625 0.890625q-0.5625 0.625 -0.5625 1.578125q0 1.125 0.671875 1.765625q0.6875 0.640625 1.890625 1.0625q1.203125 0.421875 2.6875 0.890625q1.640625 0.484375 3.015625 1.0625q1.375 0.578125 2.40625 1.46875q1.046875 0.875 1.609375 2.15625q0.5625 1.28125 0.5625 3.078125q0 2.390625 -1.125 4.375q-1.109375 1.984375 -3.234375 3.125q-2.125 1.140625 -5.203125 1.140625zm19.720596 -0.5625l0 -21.6875l-7.484375 0l0 -5.0l21.562492 0l0 5.0l-7.59375 0l0 21.6875l-6.4843674 0zm29.60122 0.5625q-3.953125 0 -6.875 -1.5q-2.921875 -1.5 -4.546875 -4.578125q-1.609375 -3.078125 -1.609375 -7.796875q0 -6.84375 3.4375 -10.359375q3.4375 -3.53125 9.59375 -3.53125q3.96875 0 6.90625 1.5q2.9375 1.5 4.53125 4.546875q1.609375 3.03125 1.609375 7.796875q0 6.875 -3.421875 10.40625q-3.421875 3.515625 -9.625 3.515625zm0 -5.328125q2.046875 0 3.453125 -0.828125q1.421875 -0.84375 2.15625 -2.734375q0.75 -1.90625 0.75 -5.03125q0 -3.15625 -0.75 -5.03125q-0.734375 -1.890625 -2.15625 -2.703125q-1.40625 -0.828125 -3.453125 -0.828125q-2.03125 0 -3.4375 0.84375q-1.40625 0.84375 -2.140625 2.71875q-0.734375 1.875 -0.734375 5.078125q0 3.15625 0.734375 5.015625q0.734375 1.859375 2.140625 2.6875q1.40625 0.8125 3.4375 0.8125zm17.604965 4.765625l0 -26.6875l6.59375 0l9.15625 12.765625l-3.515625 0.125l9.484375 -12.890625l6.4375 0l0 26.6875l-6.484375 0l0 -21.796875l1.28125 2.078125l-9.109375 12.125l-9.046875 -12.328125l1.40625 -0.953125l0 20.875l-6.203125 0zm33.839966 0l0 -26.6875l6.46875 0l0 26.6875l-6.46875 0zm11.472488 0l0 -4.71875l14.125 -18.15625l1.671875 1.3125l-15.59375 0l0 -5.125l20.765625 0l0 4.640625l-13.4375 17.84375l-2.125 -0.84375l15.5625 0l0 5.046875l-20.96875 0zm26.04747 0l0 -26.6875l18.28125 0l0 5.0l-11.8125 0l0 5.8125l10.25 0l0 5.03125l-10.25 0l0 5.84375l11.8125 0l0 5.0l-18.28125 0z" fill-rule="nonzero"/><path fill="#000000" fill-opacity="0.0" d="m29.622047 77.90026l312.2205 0l0 119.84252l-312.2205 0z" fill-rule="evenodd"/><path fill="#f3f3f3" d="m60.543922 163.70026l0 -23.046875l-20.234375 -30.3125l15.90625 0l15.203125 25.515625l-6.0 0l13.84375 -25.515625l12.875 0l-20.46875 33.515625l1.828125 -6.875l0 26.71875l-12.953125 0zm59.915573 1.125q-7.921875 0 -13.765625 -3.0q-5.828125 -3.0 -9.078125 -9.15625q-3.234375 -6.171875 -3.234375 -15.609375q0 -13.671875 6.875 -20.71875q6.890625 -7.046875 19.203125 -7.046875q7.9218674 0 13.796867 3.0q5.890625 3.0 9.078125 9.09375q3.203125 6.078125 3.203125 15.59375q0 13.765625 -6.84375 20.8125q-6.828125 7.03125 -19.234367 7.03125zm0 -10.640625q4.078125 0 6.921875 -1.671875q2.8437424 -1.6875 4.3124924 -5.484375q1.484375 -3.8125 1.484375 -10.046875q0 -6.328125 -1.484375 -10.078125q-1.46875 -3.765625 -4.3124924 -5.40625q-2.84375 -1.640625 -6.921875 -1.640625q-4.078125 0 -6.875 1.6875q-2.796875 1.671875 -4.28125 5.4375q-1.484375 3.765625 -1.484375 10.15625q0 6.328125 1.484375 10.046875q1.484375 3.71875 4.28125 5.359375q2.796875 1.640625 6.875 1.640625zm59.756813 11.203125q-12.3125 0 -18.4375 -5.234375q-6.109375 -5.25 -6.109375 -16.375l0 -33.4375l13.515625 0l0 32.875q0 6.171875 2.46875 9.125q2.484375 2.953125 7.921875 2.953125q4.96875 0 7.71875 -2.953125q2.765625 -2.953125 2.765625 -9.125l0 -32.875l12.328125 0l0 33.4375q0 7.4375 -2.84375 12.203125q-2.84375 4.765625 -7.8125 7.09375q-4.953125 2.3125 -11.515625 2.3125zm33.533066 -1.6875l0 -53.359375l26.0 0q9.03125 0 14.140625 4.203125q5.1250153 4.203125 5.1250153 12.75q0 3.53125 -1.4375 6.9375q-1.4375 3.390625 -4.2343903 5.828125q-2.796875 2.4375 -7.046875 3.15625l-0.796875 -4.390625l16.250015 24.875l-16.48439 0l-13.359375 -23.28125l5.75 4.875l-10.953125 0l0 18.40625l-12.953125 0zm12.953125 -27.921875l10.875 0q3.4375 0 5.4375 -1.828125q2.0 -1.84375 2.0 -6.09375q0 -3.671875 -1.796875 -5.59375q-1.796875 -1.921875 -5.078125 -1.921875l-11.4375 0l0 15.4375z" fill-rule="nonzero"/><path fill="#000000" fill-opacity="0.0" d="m29.622047 139.13124l285.5433 0l0 119.842514l-285.5433 0z" fill-rule="evenodd"/><path fill="#f3f3f3" d="m44.309547 224.93123l0 -53.359375l21.4375 0q13.59375 0 19.984375 6.765625q6.40625 6.75 6.40625 19.953125q0 13.125 -6.40625 19.890625q-6.390625 6.75 -19.984375 6.75l-21.4375 0zm12.953125 -10.0l6.953125 0q7.203125 0 10.921875 -4.0q3.71875 -4.0 3.71875 -12.640625q0 -8.796875 -3.71875 -12.75q-3.71875 -3.96875 -10.921875 -3.96875l-6.953125 0l0 33.359375zm43.92682 10.0l0 -53.359375l36.546867 0l0 10.0l-23.593742 0l0 11.59375l20.484367 0l0 10.078125l-20.484367 0l0 11.6875l23.593742 0l0 10.0l-36.546867 0zm47.43995 0l0 -53.359375l13.1875 0l18.328125 25.515625l-7.046875 0.25l18.96875 -25.765625l12.875 0l0 53.359375l-12.953125 0l0 -43.59375l2.546875 4.15625l-18.234375 24.234375l-18.078125 -24.640625l2.796875 -1.921875l0 41.765625l-12.390625 0zm91.42993 1.125q-7.921875 0 -13.765625 -3.0q-5.828125 -3.0 -9.078125 -9.15625q-3.234375 -6.171875 -3.234375 -15.609375q0 -13.671875 6.875 -20.71875q6.890625 -7.046875 19.203125 -7.046875q7.921875 0 13.796875 3.0q5.8906403 3.0 9.07814 9.09375q3.203125 6.078125 3.203125 15.59375q0 13.765625 -6.84375 20.8125q-6.8281403 7.03125 -19.23439 7.03125zm0 -10.640625q4.078125 0 6.921875 -1.671875q2.84375 -1.6875 4.3125 -5.484375q1.484375 -3.8125 1.484375 -10.046875q0 -6.328125 -1.484375 -10.078125q-1.46875 -3.765625 -4.3125 -5.40625q-2.84375 -1.640625 -6.921875 -1.640625q-4.078125 0 -6.875 1.6875q-2.796875 1.671875 -4.28125 5.4375q-1.484375 3.765625 -1.484375 10.15625q0 6.328125 1.484375 10.046875q1.484375 3.71875 4.28125 5.359375q2.796875 1.640625 6.875 1.640625z" fill-rule="nonzero"/><path fill="#000000" fill-opacity="0.0" d="m207.48032 0l134.36221 0l0 76.031494l-134.36221 0z" fill-rule="evenodd"/><path fill="#666666" d="m274.3483 34.040623l0 -13.328125l2.828125 0l3.5625 5.203125l3.5625 -5.203125l2.84375 0l0 13.328125l-2.84375 0l0 -9.046875l-3.5625 5.125l-3.5625 -5.125l0 9.046875l-2.828125 0zm-8.96875 0l0 -10.71875l-4.125 0l0 -2.609375l11.09375 0l0 2.609375l-4.125 0l0 10.71875l-2.84375 0z" fill-rule="nonzero"/></g></svg>